<svg width="25" height="24" viewBox="0 0 25 24" fill="none" xmlns="http://www.w3.org/2000/svg">
<path d="M12.5 0.25C18.9893 0.25 24.25 5.51065 24.25 12C24.25 18.4893 18.9893 23.75 12.5 23.75C9.13927 23.75 6.00509 22.3301 3.79199 19.8887C3.51416 19.5819 3.53731 19.1082 3.84375 18.8301C4.15064 18.5519 4.62513 18.5749 4.90332 18.8818C6.83499 21.0128 9.56714 22.25 12.5 22.25C18.1609 22.25 22.75 17.6609 22.75 12C22.75 6.33908 18.1609 1.75 12.5 1.75C12.0858 1.75 11.75 1.41421 11.75 1C11.75 0.585787 12.0858 0.250002 12.5 0.25ZM2.5 14.25C3.19036 14.25 3.75 14.8096 3.75 15.5C3.75 16.1904 3.19036 16.75 2.5 16.75C1.80965 16.75 1.25 16.1904 1.25 15.5C1.25 14.8096 1.80964 14.25 2.5 14.25ZM12.4189 3.28809C12.7983 3.28825 13.1123 3.56979 13.1621 3.93555L13.1689 4.03809V12.3105L9.38672 16.0928C9.09386 16.3853 8.61897 16.3854 8.32617 16.0928C8.05995 15.8265 8.03616 15.4098 8.25391 15.1162L8.32617 15.0312L11.6689 11.6895V4.03809C11.6689 3.62387 12.0047 3.28809 12.4189 3.28809ZM2 9.25C2.69036 9.25 3.25 9.80964 3.25 10.5C3.25 11.1904 2.69035 11.75 2 11.75C1.30964 11.75 0.750002 11.1904 0.75 10.5C0.75 9.80964 1.30964 9.25 2 9.25ZM3.75 4.25C4.44036 4.25 5 4.80964 5 5.5C5 6.19035 4.44036 6.75 3.75 6.75C3.05964 6.75 2.5 6.19035 2.5 5.5C2.5 4.80964 3.05964 4.25 3.75 4.25ZM8 0.75C8.69036 0.75 9.25 1.30964 9.25 2C9.25 2.69035 8.69035 3.25 8 3.25C7.30965 3.25 6.75 2.69035 6.75 2C6.75 1.30964 7.30964 0.75 8 0.75Z" fill="#262626"/>
</svg>
