<svg width="25" height="24" viewBox="0 0 25 24" fill="none" xmlns="http://www.w3.org/2000/svg">
<path d="M12.5 0.250122C18.9893 0.250122 24.25 5.51078 24.25 12.0001C24.25 18.4895 18.9893 23.7501 12.5 23.7501C9.1393 23.7501 6.00507 22.3302 3.79199 19.8888C3.51423 19.582 3.53738 19.1084 3.84375 18.8302C4.15064 18.552 4.62513 18.5751 4.90332 18.882C6.83497 21.0129 9.56716 22.2501 12.5 22.2501C18.1609 22.2501 22.75 17.661 22.75 12.0001C22.75 6.3392 18.1609 1.75012 12.5 1.75012C11.1355 1.75013 9.80941 2.01653 8.57715 2.52747C7.3339 3.04299 6.20364 3.80039 5.25195 4.75208C4.5202 5.48384 3.90328 6.32155 3.42285 7.2345L7.10156 7.23547C7.51571 7.23556 7.85156 7.57131 7.85156 7.98547C7.85138 8.365 7.56908 8.67899 7.20312 8.72864L7.10156 8.73547H1.5C1.12036 8.73547 0.806567 8.45303 0.756836 8.08704L0.75 7.98547V2.50012C0.75 2.08591 1.08579 1.75012 1.5 1.75012C1.8797 1.75012 2.1935 2.03248 2.24316 2.39856L2.25 2.50012L2.24902 6.25403C2.77545 5.31678 3.42897 4.45398 4.19141 3.69153C5.28166 2.60127 6.57634 1.73291 8.00195 1.14172C9.41563 0.555526 10.9373 0.250135 12.5 0.250122ZM12.4189 4.28821C12.7984 4.28838 13.1123 4.56987 13.1621 4.93567L13.1689 5.03821V12.3107L9.38672 16.0919C9.09383 16.3848 8.61907 16.3848 8.32617 16.0919C8.06016 15.8256 8.03613 15.4089 8.25391 15.1154L8.32617 15.0314L11.6689 11.6896V5.03821C11.6689 4.62399 12.0047 4.28821 12.4189 4.28821Z" fill="#262626"/>
</svg>
