<svg width="25" height="18" viewBox="0 0 25 18" fill="none" xmlns="http://www.w3.org/2000/svg">
<path d="M19 11.25C21.8269 11.25 24.1324 13.4842 24.2461 16.2832L24.25 16.5V17.25C24.25 17.6642 23.9142 18 23.5 18C23.1203 18 22.8065 17.7176 22.7568 17.3516L22.75 17.25V16.5C22.75 14.4958 21.1777 12.8584 19.1992 12.7549L19 12.75H14C11.9958 12.75 10.3584 14.3223 10.2549 16.3008L10.25 16.5V17.25C10.25 17.6642 9.91421 18 9.5 18C9.1203 18 8.8065 17.7176 8.75684 17.3516L8.75 17.25V16.5C8.75 13.6731 10.9842 11.3676 13.7832 11.2539L14 11.25H19ZM5 4.75C5.3797 4.75 5.6935 5.03236 5.74316 5.39844L5.75 5.5V8.25H8.5C8.8797 8.25 9.1935 8.53236 9.24316 8.89844L9.25 9C9.25 9.3797 8.96764 9.6935 8.60156 9.74316L8.5 9.75H5.75V12.5C5.75 12.8797 5.46764 13.1935 5.10156 13.2432L5 13.25C4.6203 13.25 4.3065 12.9676 4.25684 12.6016L4.25 12.5V9.75H1.5C1.1203 9.75 0.806498 9.46764 0.756836 9.10156L0.75 9C0.75 8.6203 1.03236 8.3065 1.39844 8.25684L1.5 8.25H4.25V5.5C4.25 5.15482 4.48335 4.86368 4.80078 4.77637L4.89844 4.75684L5 4.75ZM16.5 0.25C19.1234 0.25 21.25 2.37665 21.25 5C21.25 7.62335 19.1234 9.75 16.5 9.75C13.8766 9.75 11.75 7.62335 11.75 5C11.75 2.37665 13.8766 0.25 16.5 0.25ZM16.5 1.75C14.7051 1.75 13.25 3.20507 13.25 5C13.25 6.79493 14.7051 8.25 16.5 8.25C18.2949 8.25 19.75 6.79493 19.75 5C19.75 3.20507 18.2949 1.75 16.5 1.75Z" fill="#262626"/>
</svg>
