<svg width="24" height="24" viewBox="0 0 24 24" fill="none" xmlns="http://www.w3.org/2000/svg">
<path d="M11.1396 0.905163C11.5482 0.524165 12.2018 0.524085 12.6103 0.905163L23.1171 10.7069C23.3185 10.895 23.4316 11.1523 23.4316 11.4208V23.5009C23.4314 23.7462 23.2459 23.9498 23.0009 23.9921L22.9062 24.0009L14.5009 23.9999C14.211 23.9997 13.9756 23.7759 13.9755 23.4999V18.0009L13.9716 17.6503C13.93 16.2158 13.5914 15.0902 12.0595 15.0057L11.875 15.0009C10.1964 15.0009 9.87415 16.2494 9.77827 17.8241L9.77339 18.0009V23.4999C9.77337 23.776 9.53813 23.9999 9.248 23.9999L0.842728 24.0009C0.58496 24.0009 0.370764 23.8238 0.326126 23.5907L0.317337 23.5009V11.4208C0.317337 11.1521 0.431229 10.895 0.632767 10.7069L11.1396 0.905163ZM1.89351 11.6307V22.5009L8.19722 22.4999L8.1982 17.9569L8.20503 17.7372C8.36716 15.0751 9.30206 13.5003 11.9199 13.5009L12.1513 13.5087C14.5458 13.6409 15.4765 15.2017 15.5468 17.6317L15.5517 18.0009V22.4999L21.8564 22.5009V11.6307L11.875 2.31923L1.89351 11.6307Z" fill="#262626"/>
</svg>
