<svg width="25" height="24" viewBox="0 0 25 24" fill="none" xmlns="http://www.w3.org/2000/svg">
<path d="M1.5 15.25C1.8797 15.25 2.1935 15.5324 2.24316 15.8984L2.25 16V19C2.25 20.733 3.60637 22.1494 5.31543 22.2451L5.5 22.25H8.5C8.91421 22.25 9.25 22.5858 9.25 23C9.25 23.3797 8.96764 23.6935 8.60156 23.7432L8.5 23.75H5.5C2.94963 23.75 0.868699 21.74 0.754883 19.2178L0.75 19V16C0.75 15.5858 1.08579 15.25 1.5 15.25ZM23.5 15.25C23.8797 15.25 24.1935 15.5324 24.2432 15.8984L24.25 16V19C24.25 21.5504 22.24 23.6313 19.7178 23.7451L19.5 23.75H16.5C16.0858 23.75 15.75 23.4142 15.75 23C15.75 22.6203 16.0324 22.3065 16.3984 22.2568L16.5 22.25H19.5C21.233 22.25 22.6494 20.8936 22.7451 19.1846L22.75 19V16C22.75 15.5858 23.0858 15.25 23.5 15.25ZM15 6.75C16.5188 6.75 17.75 7.98122 17.75 9.5V14.5C17.75 16.0188 16.5188 17.25 15 17.25H10C8.48122 17.25 7.25 16.0188 7.25 14.5V9.5C7.25 7.98122 8.48122 6.75 10 6.75H15ZM10 8.25C9.30964 8.25 8.75 8.80964 8.75 9.5V14.5C8.75 15.1904 9.30964 15.75 10 15.75H15C15.6904 15.75 16.25 15.1904 16.25 14.5V9.5C16.25 8.80964 15.6904 8.25 15 8.25H10ZM8.5 0.25C8.91421 0.25 9.25 0.585786 9.25 1C9.25 1.3797 8.96764 1.6935 8.60156 1.74316L8.5 1.75H5.5C3.76701 1.75 2.35056 3.10637 2.25488 4.81543L2.25 5V8C2.25 8.41421 1.91421 8.75 1.5 8.75C1.1203 8.75 0.806498 8.46764 0.756836 8.10156L0.75 8V5C0.75 2.44963 2.75996 0.368699 5.28223 0.254883L5.5 0.25H8.5ZM19.5 0.25C22.0504 0.25 24.1313 2.25996 24.2451 4.78223L24.25 5V8C24.25 8.41421 23.9142 8.75 23.5 8.75C23.1203 8.75 22.8065 8.46764 22.7568 8.10156L22.75 8V5C22.75 3.26701 21.3936 1.85056 19.6846 1.75488L19.5 1.75H16.5C16.0858 1.75 15.75 1.41421 15.75 1C15.75 0.620304 16.0324 0.306498 16.3984 0.256836L16.5 0.25H19.5Z" fill="#262626"/>
</svg>
