<svg width="25" height="24" viewBox="0 0 25 24" fill="none" xmlns="http://www.w3.org/2000/svg">
<path d="M10.5734 0.25C16.231 0.250073 20.8176 4.61527 20.8176 10C20.8176 12.4225 19.8891 14.6386 18.3527 16.3438L24.6467 22.334C24.9539 22.6269 24.9541 23.1018 24.6467 23.3945C24.3669 23.6608 23.9288 23.6846 23.6203 23.4668L23.5314 23.3945L17.2385 17.4043C15.4469 18.8666 13.1186 19.75 10.5734 19.75C4.91582 19.75 0.329285 15.3848 0.329285 10C0.329285 4.61522 4.91582 0.25 10.5734 0.25ZM10.5734 1.75C5.78622 1.75 1.90546 5.44365 1.90546 10C1.90546 14.5563 5.78622 18.25 10.5734 18.25C15.3606 18.2499 19.2414 14.5563 19.2414 10C19.2414 5.4437 15.3606 1.75008 10.5734 1.75Z" fill="#262626"/>
</svg>
