<svg width="26" height="24" viewBox="0 0 26 24" fill="none" xmlns="http://www.w3.org/2000/svg">
<path d="M12.6029 0.63657C12.8083 0.441744 13.1407 0.441656 13.3461 0.63657L15.8295 2.99985H22.1683C23.9089 3.00005 25.3197 4.34316 25.3197 5.99985V20.9999C25.3197 22.6566 23.909 23.9996 22.1683 23.9999H3.78162C2.04081 23.9999 0.629272 22.6567 0.629272 20.9999V5.99985C0.629318 4.34303 2.04084 2.99985 3.78162 2.99985H10.1166L12.6029 0.63657ZM11.0765 4.20688C10.8796 4.39414 10.6127 4.4998 10.3344 4.49985H3.78162C2.91122 4.49985 2.20544 5.17142 2.20544 5.99985V20.9999C2.20554 21.8282 2.91127 22.4999 3.78162 22.4999H4.83142C4.83142 19.7384 7.18399 17.4999 10.0853 17.4999H15.8636C18.765 17.4999 21.1176 19.7384 21.1176 22.4999H22.1683C23.0385 22.4996 23.7434 21.8281 23.7435 20.9999V5.99985C23.7435 5.17157 23.0385 4.50009 22.1683 4.49985H15.6127C15.3341 4.49985 15.0665 4.39432 14.8695 4.20688L12.974 2.40317L11.0765 4.20688ZM10.0853 18.9999C8.05445 18.9999 6.40768 20.5669 6.40759 22.4999H19.5414C19.5413 20.5669 17.8945 18.9999 15.8636 18.9999H10.0853ZM12.975 6.49985C15.731 6.50007 17.9651 8.62671 17.9652 11.2499C17.9652 13.8731 15.731 15.9996 12.975 15.9999C10.2187 15.9999 7.98376 13.8732 7.98376 11.2499C7.98386 8.62657 10.2188 6.49985 12.975 6.49985ZM12.975 7.99985C11.0892 7.99985 9.56003 9.455 9.55994 11.2499C9.55994 13.0448 11.0891 14.4999 12.975 14.4999C14.8606 14.4996 16.389 13.0446 16.389 11.2499C16.3889 9.45514 14.8606 8.00007 12.975 7.99985Z" fill="black" fill-opacity="0.4"/>
</svg>
