<svg width="22" height="16" viewBox="0 0 22 16" fill="none" xmlns="http://www.w3.org/2000/svg">
<mask id="path-1-outside-1_0_1485" maskUnits="userSpaceOnUse" x="-0.650665" y="-0.209839" width="23" height="16" fill="black">
<rect fill="white" x="-0.650665" y="-0.209839" width="23" height="16"/>
<path fill-rule="evenodd" clip-rule="evenodd" d="M13.4827 0.790161C14.3531 0.790161 15.0587 1.49576 15.0587 2.36616V13.9235C15.0587 14.7939 14.3531 15.4995 13.4827 15.4995H1.92533C1.05493 15.4995 0.349335 14.7939 0.349335 13.9235V2.36616C0.349335 1.49576 1.05493 0.790161 1.92533 0.790161H13.4827ZM21.2431 3.08922C21.3216 3.23948 21.3627 3.40652 21.3627 3.57608V12.4605C21.3627 13.0407 20.8923 13.5111 20.312 13.5111C20.1427 13.5111 19.9758 13.4702 19.8257 13.3918L17.16 12V4.03865L19.8251 2.64502C20.3394 2.37614 20.9742 2.57501 21.2431 3.08922ZM7.704 2.89149C4.80267 2.89149 2.45067 5.24349 2.45067 8.14483C2.45067 11.0462 4.80267 13.3982 7.704 13.3982C10.6053 13.3982 12.9573 11.0462 12.9573 8.14483C12.9573 5.24349 10.6053 2.89149 7.704 2.89149ZM7.704 4.99283C9.4448 4.99283 10.856 6.40403 10.856 8.14483C10.856 9.88563 9.4448 11.2968 7.704 11.2968C5.9632 11.2968 4.552 9.88563 4.552 8.14483C4.552 6.40403 5.9632 4.99283 7.704 4.99283Z"/>
</mask>
<path fill-rule="evenodd" clip-rule="evenodd" d="M13.4827 0.790161C14.3531 0.790161 15.0587 1.49576 15.0587 2.36616V13.9235C15.0587 14.7939 14.3531 15.4995 13.4827 15.4995H1.92533C1.05493 15.4995 0.349335 14.7939 0.349335 13.9235V2.36616C0.349335 1.49576 1.05493 0.790161 1.92533 0.790161H13.4827ZM21.2431 3.08922C21.3216 3.23948 21.3627 3.40652 21.3627 3.57608V12.4605C21.3627 13.0407 20.8923 13.5111 20.312 13.5111C20.1427 13.5111 19.9758 13.4702 19.8257 13.3918L17.16 12V4.03865L19.8251 2.64502C20.3394 2.37614 20.9742 2.57501 21.2431 3.08922ZM7.704 2.89149C4.80267 2.89149 2.45067 5.24349 2.45067 8.14483C2.45067 11.0462 4.80267 13.3982 7.704 13.3982C10.6053 13.3982 12.9573 11.0462 12.9573 8.14483C12.9573 5.24349 10.6053 2.89149 7.704 2.89149ZM7.704 4.99283C9.4448 4.99283 10.856 6.40403 10.856 8.14483C10.856 9.88563 9.4448 11.2968 7.704 11.2968C5.9632 11.2968 4.552 9.88563 4.552 8.14483C4.552 6.40403 5.9632 4.99283 7.704 4.99283Z" fill="#FEFFFE"/>
<path d="M21.2431 3.08922L21.4203 2.99654L21.2431 3.08922ZM19.8257 13.3918L19.7332 13.5691L19.8257 13.3918ZM17.16 12H16.96V12.1212L17.0674 12.1773L17.16 12ZM17.16 4.03865L17.0673 3.86142L16.96 3.91754V4.03865H17.16ZM19.8251 2.64502L19.9178 2.82225L19.8251 2.64502ZM13.4827 0.790161V0.990161C14.2426 0.990161 14.8587 1.60622 14.8587 2.36616H15.0587H15.2587C15.2587 1.3853 14.4635 0.590161 13.4827 0.590161V0.790161ZM15.0587 2.36616H14.8587V13.9235H15.0587H15.2587V2.36616H15.0587ZM15.0587 13.9235H14.8587C14.8587 14.6834 14.2426 15.2995 13.4827 15.2995V15.4995V15.6995C14.4635 15.6995 15.2587 14.9044 15.2587 13.9235H15.0587ZM13.4827 15.4995V15.2995H1.92533V15.4995V15.6995H13.4827V15.4995ZM1.92533 15.4995V15.2995C1.16539 15.2995 0.549335 14.6834 0.549335 13.9235H0.349335H0.149335C0.149335 14.9044 0.944477 15.6995 1.92533 15.6995V15.4995ZM0.349335 13.9235H0.549335V2.36616H0.349335H0.149335V13.9235H0.349335ZM0.349335 2.36616H0.549335C0.549335 1.60622 1.16539 0.990161 1.92533 0.990161V0.790161V0.590161C0.944477 0.590161 0.149335 1.3853 0.149335 2.36616H0.349335ZM1.92533 0.790161V0.990161H13.4827V0.790161V0.590161H1.92533V0.790161ZM21.2431 3.08922L21.0658 3.1819C21.1294 3.30355 21.1627 3.4388 21.1627 3.57608H21.3627H21.5627C21.5627 3.37424 21.5138 3.1754 21.4203 2.99654L21.2431 3.08922ZM21.3627 3.57608H21.1627V12.4605H21.3627H21.5627V3.57608H21.3627ZM21.3627 12.4605H21.1627C21.1627 12.9303 20.7818 13.3111 20.312 13.3111V13.5111V13.7111C21.0027 13.7111 21.5627 13.1512 21.5627 12.4605H21.3627ZM20.312 13.5111V13.3111C20.1749 13.3111 20.0398 13.278 19.9183 13.2145L19.8257 13.3918L19.7332 13.5691C19.9118 13.6624 20.1104 13.7111 20.312 13.7111V13.5111ZM19.8257 13.3918L19.9183 13.2145L17.2526 11.8227L17.16 12L17.0674 12.1773L19.7332 13.5691L19.8257 13.3918ZM17.16 12H17.36V4.03865H17.16H16.96V12H17.16ZM17.16 4.03865L17.2527 4.21588L19.9178 2.82225L19.8251 2.64502L19.7325 2.46779L17.0673 3.86142L17.16 4.03865ZM19.8251 2.64502L19.9178 2.82225C20.3341 2.60455 20.8481 2.76557 21.0658 3.1819L21.2431 3.08922L21.4203 2.99654C21.1002 2.38445 20.3446 2.14772 19.7325 2.46779L19.8251 2.64502ZM7.704 2.89149V2.69149C4.69221 2.69149 2.25067 5.13304 2.25067 8.14483H2.45067H2.65067C2.65067 5.35395 4.91312 3.09149 7.704 3.09149V2.89149ZM2.45067 8.14483H2.25067C2.25067 11.1566 4.69221 13.5982 7.704 13.5982V13.3982V13.1982C4.91312 13.1982 2.65067 10.9357 2.65067 8.14483H2.45067ZM7.704 13.3982V13.5982C10.7158 13.5982 13.1573 11.1566 13.1573 8.14483H12.9573H12.7573C12.7573 10.9357 10.4949 13.1982 7.704 13.1982V13.3982ZM12.9573 8.14483H13.1573C13.1573 5.13304 10.7158 2.69149 7.704 2.69149V2.89149V3.09149C10.4949 3.09149 12.7573 5.35395 12.7573 8.14483H12.9573ZM7.704 4.99283V5.19283C9.33435 5.19283 10.656 6.51448 10.656 8.14483H10.856H11.056C11.056 6.29357 9.55526 4.79283 7.704 4.79283V4.99283ZM10.856 8.14483H10.656C10.656 9.77517 9.33435 11.0968 7.704 11.0968V11.2968V11.4968C9.55526 11.4968 11.056 9.99609 11.056 8.14483H10.856ZM7.704 11.2968V11.0968C6.07366 11.0968 4.752 9.77517 4.752 8.14483H4.552H4.352C4.352 9.99609 5.85274 11.4968 7.704 11.4968V11.2968ZM4.552 8.14483H4.752C4.752 6.51448 6.07366 5.19283 7.704 5.19283V4.99283V4.79283C5.85274 4.79283 4.352 6.29357 4.352 8.14483H4.552Z" fill="black" fill-opacity="0.2" mask="url(#path-1-outside-1_0_1485)"/>
</svg>
